# Blender v3.2.1 OBJ File: 'real.blend'
# www.blender.org
mtllib Road.mtl
o StraightFIX_Cube.005
v -6.000000 -1.000000 -10.000000
v -6.000000 0.000000 -10.000000
v -6.000000 -1.000000 10.000000
v -6.000000 0.000000 10.000000
v 6.000000 -1.000000 -10.000000
v 6.000000 0.000000 -10.000000
v 6.000000 -1.000000 10.000000
v 6.000000 0.000000 10.000000
v -5.000000 0.000000 -10.000000
v -4.000000 0.000000 -10.000000
v -3.000000 0.000000 -10.000000
v -2.000000 0.000000 -10.000000
v -1.000000 0.000000 -10.000000
v 0.000000 0.000000 -10.000000
v 1.000000 0.000000 -10.000000
v 2.000000 0.000000 -10.000000
v 3.000000 0.000000 -10.000000
v 4.000000 0.000000 -10.000000
v 5.000000 0.000000 -10.000000
v -5.000000 -1.000000 10.000000
v 5.000000 -1.000000 10.000000
v 5.000000 0.000000 10.000000
v 4.000000 0.000000 10.000000
v 3.000000 0.000000 10.000000
v 2.000000 0.000000 10.000000
v 1.000000 0.000000 10.000000
v 0.000000 0.000000 10.000000
v -1.000000 0.000000 10.000000
v -2.000000 0.000000 10.000000
v -3.000000 0.000000 10.000000
v -4.000000 0.000000 10.000000
v -5.000000 0.000000 10.000000
v 5.000000 -1.000000 -10.000000
v -5.000000 -1.000000 -10.000000
v -4.500000 -1.000000 10.000000
v -4.500000 -1.000000 -10.000000
v 4.500000 -1.000000 10.000000
v 4.500000 -1.000000 -10.000000
v 6.000000 0.000000 -8.181818
v 6.000000 0.000000 -6.363636
v 6.000000 0.000000 -4.545454
v 6.000000 0.000000 -2.727272
v 6.000000 0.000000 -0.909091
v 6.000000 0.000000 0.909091
v 6.000000 0.000000 2.727273
v 6.000000 0.000000 4.545455
v 6.000000 0.000000 6.363637
v 6.000000 0.000000 8.181818
v -6.000000 -1.000000 -8.181818
v -6.000000 -1.000000 -6.363636
v -6.000000 -1.000000 -4.545454
v -6.000000 -1.000000 -2.727272
v -6.000000 -1.000000 -0.909091
v -6.000000 -1.000000 0.909091
v -6.000000 -1.000000 2.727273
v -6.000000 -1.000000 4.545455
v -6.000000 -1.000000 6.363637
v -6.000000 -1.000000 8.181818
v 6.000000 -1.000000 8.181818
v 6.000000 -1.000000 6.363636
v 6.000000 -1.000000 4.545454
v 6.000000 -1.000000 2.727272
v 6.000000 -1.000000 0.909091
v 6.000000 -1.000000 -0.909091
v 6.000000 -1.000000 -2.727273
v 6.000000 -1.000000 -4.545455
v 6.000000 -1.000000 -6.363637
v 6.000000 -1.000000 -8.181818
v -6.000000 0.000000 8.181818
v -6.000000 0.000000 6.363636
v -6.000000 0.000000 4.545454
v -6.000000 0.000000 2.727272
v -6.000000 0.000000 0.909091
v -6.000000 0.000000 -0.909091
v -6.000000 0.000000 -2.727273
v -6.000000 0.000000 -4.545455
v -6.000000 0.000000 -6.363637
v -6.000000 0.000000 -8.181818
v -5.000000 -1.000000 -8.181818
v -5.000000 -1.000000 -6.363636
v -5.000000 -1.000000 -4.545454
v -5.000000 -1.000000 -2.727272
v -5.000000 -1.000000 -0.909091
v -5.000000 -1.000000 0.909091
v -5.000000 -1.000000 2.727273
v -5.000000 -1.000000 4.545455
v -5.000000 -1.000000 6.363637
v -5.000000 -1.000000 8.181818
v 5.000000 -1.000000 -8.181818
v 5.000000 -1.000000 -6.363636
v 5.000000 -1.000000 -4.545454
v 5.000000 -1.000000 -2.727272
v 5.000000 -1.000000 -0.909091
v 5.000000 -1.000000 0.909091
v 5.000000 -1.000000 2.727273
v 5.000000 -1.000000 4.545455
v 5.000000 -1.000000 6.363637
v 5.000000 -1.000000 8.181818
v 4.500000 -1.000000 8.181818
v 4.500000 -1.000000 6.363636
v 4.500000 -1.000000 4.545454
v 4.500000 -1.000000 2.727272
v 4.500000 -1.000000 0.909091
v 4.500000 -1.000000 -0.909091
v 4.500000 -1.000000 -2.727273
v 4.500000 -1.000000 -4.545455
v 4.500000 -1.000000 -6.363637
v 4.500000 -1.000000 -8.181818
v -4.500000 -1.000000 -8.181818
v -4.500000 -1.000000 -6.363636
v -4.500000 -1.000000 -4.545454
v -4.500000 -1.000000 -2.727272
v -4.500000 -1.000000 -0.909091
v -4.500000 -1.000000 0.909091
v -4.500000 -1.000000 2.727273
v -4.500000 -1.000000 4.545455
v -4.500000 -1.000000 6.363637
v -4.500000 -1.000000 8.181818
vt 0.334090 0.956035
vt 0.334090 0.956035
vt 0.334090 0.956035
vt 0.334090 0.956035
vt 0.334090 0.956035
vt 0.334090 0.956035
vt 0.334090 0.956035
vt 0.334090 0.956035
vt 0.319639 0.963932
vt 0.317699 0.961617
vt 0.318559 0.961382
vt 0.320279 0.963962
vt 0.334090 0.956035
vt 0.334090 0.956035
vt 0.334090 0.956035
vt 0.334090 0.956035
vt 0.334090 0.956035
vt 0.334090 0.956035
vt 0.334090 0.956035
vt 0.334090 0.956035
vt 0.334090 0.956035
vt 0.334090 0.956035
vt 0.334090 0.956035
vt 0.334090 0.956035
vt 0.334090 0.956035
vt 0.334090 0.956035
vt 0.334090 0.956035
vt 0.351562 0.496094
vt 0.351562 0.496094
vt 0.349715 0.502910
vt 0.349715 0.502910
vt 0.351562 0.496094
vt 0.351562 0.496094
vt 0.349715 0.502910
vt 0.349715 0.502910
vt 0.351562 0.496094
vt 0.351562 0.496094
vt 0.349715 0.502910
vt 0.349715 0.502910
vt 0.351562 0.496094
vt 0.349715 0.502910
vt 0.351562 0.496094
vt 0.349715 0.502910
vt 0.351562 0.496094
vt 0.349715 0.502910
vt 0.351562 0.496094
vt 0.349715 0.502910
vt 0.351562 0.496094
vt 0.349715 0.502910
vt 0.351562 0.496094
vt 0.349715 0.502910
vt 0.351562 0.496094
vt 0.349715 0.502910
vt 0.351562 0.496094
vt 0.349715 0.502910
vt 0.351562 0.496094
vt 0.351562 0.496094
vt 0.349715 0.502910
vt 0.349715 0.502910
vt 0.351562 0.496094
vt 0.349715 0.502910
vt 0.351562 0.496094
vt 0.349715 0.502910
vt 0.351562 0.496094
vt 0.349715 0.502910
vt 0.351562 0.496094
vt 0.349715 0.502910
vt 0.351562 0.496094
vt 0.349715 0.502910
vt 0.351562 0.496094
vt 0.349715 0.502910
vt 0.351562 0.496094
vt 0.349715 0.502910
vt 0.351562 0.496094
vt 0.349715 0.502910
vt 0.334090 0.956035
vt 0.334090 0.956035
vt 0.334090 0.956035
vt 0.334090 0.956035
vt 0.334090 0.956035
vt 0.334090 0.956035
vt 0.334090 0.956035
vt 0.334090 0.956035
vt 0.334090 0.956035
vt 0.334090 0.956035
vt 0.334090 0.956035
vt 0.334090 0.956035
vt 0.334090 0.956035
vt 0.334090 0.956035
vt 0.334090 0.956035
vt 0.334090 0.956035
vt 0.334090 0.956035
vt 0.334090 0.956035
vt 0.334090 0.956035
vt 0.334090 0.956035
vt 0.334090 0.956035
vt 0.334090 0.956035
vt 0.334090 0.956035
vt 0.334090 0.956035
vt 0.334090 0.956035
vt 0.334090 0.956035
vt 0.334090 0.956035
vt 0.334090 0.956035
vt 0.334090 0.956035
vt 0.313233 0.963631
vt 0.309101 0.963962
vt 0.309960 0.963727
vt 0.313873 0.963661
vt 0.310820 0.963493
vt 0.314514 0.963691
vt 0.311680 0.963258
vt 0.315154 0.963721
vt 0.312540 0.963024
vt 0.315795 0.963751
vt 0.313400 0.962789
vt 0.316436 0.963781
vt 0.314260 0.962555
vt 0.317076 0.963811
vt 0.315120 0.962320
vt 0.317717 0.963841
vt 0.315980 0.962085
vt 0.318357 0.963871
vt 0.316840 0.961851
vt 0.318998 0.963902
vt 0.334090 0.956035
vt 0.334090 0.956035
vt 0.334090 0.956035
vt 0.334090 0.956035
vt 0.334090 0.956035
vt 0.334090 0.956035
vt 0.334090 0.956035
vt 0.334090 0.956035
vt 0.334090 0.956035
vt 0.334090 0.956035
vt 0.334090 0.956035
vt 0.334090 0.956035
vt 0.334090 0.956035
vt 0.334090 0.956035
vt 0.334090 0.956035
vt 0.334090 0.956035
vt 0.334090 0.956035
vt 0.334090 0.956035
vt 0.334090 0.956035
vt 0.334090 0.956035
vt 0.334090 0.956035
vt 0.334090 0.956035
vt 0.334090 0.956035
vt 0.334090 0.956035
vt 0.334090 0.956035
vt 0.334090 0.956035
vt 0.334090 0.956035
vt 0.334090 0.956035
vt 0.334090 0.956035
vt 0.334090 0.956035
vt 0.334090 0.956035
vt 0.334090 0.956035
vt 0.334090 0.956035
vt 0.334090 0.956035
vt 0.334090 0.956035
vt 0.334090 0.956035
vt 0.334090 0.956035
vt 0.334090 0.956035
vt 0.334090 0.956035
vt 0.334090 0.956035
vt 0.334090 0.956035
vt 0.334090 0.956035
vn 0.0000 -1.0000 0.0000
vn 1.0000 0.0000 0.0000
vn 0.0000 1.0000 0.0000
vn -1.0000 -0.0000 0.0000
usemtl Material.005
s off
f 98/1/1 59/2/1 7/3/1 21/4/1
f 39/5/2 68/6/2 5/7/2 6/8/2
f 118/9/1 99/10/1 37/11/1 35/12/1
f 48/13/3 69/14/3 4/15/3 32/16/3 31/17/3 30/18/3 29/19/3 28/20/3 27/21/3 26/22/3 25/23/3 24/24/3 23/25/3 22/26/3 8/27/3
f 108/28/1 38/29/1 33/30/1 89/31/1
f 118/32/1 35/33/1 20/34/1 88/35/1
f 36/36/1 109/37/1 79/38/1 34/39/1
f 109/37/1 110/40/1 80/41/1 79/38/1
f 110/40/1 111/42/1 81/43/1 80/41/1
f 111/42/1 112/44/1 82/45/1 81/43/1
f 112/44/1 113/46/1 83/47/1 82/45/1
f 113/46/1 114/48/1 84/49/1 83/47/1
f 114/48/1 115/50/1 85/51/1 84/49/1
f 115/50/1 116/52/1 86/53/1 85/51/1
f 116/52/1 117/54/1 87/55/1 86/53/1
f 117/54/1 118/32/1 88/35/1 87/55/1
f 37/56/1 99/57/1 98/58/1 21/59/1
f 99/57/1 100/60/1 97/61/1 98/58/1
f 100/60/1 101/62/1 96/63/1 97/61/1
f 101/62/1 102/64/1 95/65/1 96/63/1
f 102/64/1 103/66/1 94/67/1 95/65/1
f 103/66/1 104/68/1 93/69/1 94/67/1
f 104/68/1 105/70/1 92/71/1 93/69/1
f 105/70/1 106/72/1 91/73/1 92/71/1
f 106/72/1 107/74/1 90/75/1 91/73/1
f 107/74/1 108/28/1 89/31/1 90/75/1
f 9/76/3 2/77/3 78/78/3 39/5/3 6/8/3 19/79/3 18/80/3 17/81/3 16/82/3 15/83/3 14/84/3 13/85/3 12/86/3 11/87/3 10/88/3
f 39/5/3 78/78/3 77/89/3 40/90/3
f 40/90/3 77/89/3 76/91/3 41/92/3
f 41/92/3 76/91/3 75/93/3 42/94/3
f 42/94/3 75/93/3 74/95/3 43/96/3
f 43/96/3 74/95/3 73/97/3 44/98/3
f 44/98/3 73/97/3 72/99/3 45/100/3
f 45/100/3 72/99/3 71/101/3 46/102/3
f 46/102/3 71/101/3 70/103/3 47/104/3
f 47/104/3 70/103/3 69/14/3 48/13/3
f 36/105/1 38/106/1 108/107/1 109/108/1
f 109/108/1 108/107/1 107/109/1 110/110/1
f 110/110/1 107/109/1 106/111/1 111/112/1
f 111/112/1 106/111/1 105/113/1 112/114/1
f 112/114/1 105/113/1 104/115/1 113/116/1
f 113/116/1 104/115/1 103/117/1 114/118/1
f 114/118/1 103/117/1 102/119/1 115/120/1
f 115/120/1 102/119/1 101/121/1 116/122/1
f 116/122/1 101/121/1 100/123/1 117/124/1
f 117/124/1 100/123/1 99/10/1 118/9/1
f 1/125/1 34/126/1 79/127/1 49/128/1
f 49/128/1 79/127/1 80/129/1 50/130/1
f 50/130/1 80/129/1 81/131/1 51/132/1
f 51/132/1 81/131/1 82/133/1 52/134/1
f 52/134/1 82/133/1 83/135/1 53/136/1
f 53/136/1 83/135/1 84/137/1 54/138/1
f 88/139/1 20/140/1 3/141/1 58/142/1 57/143/1 56/144/1 55/145/1 54/138/1 84/137/1 85/146/1 86/147/1 87/148/1
f 8/27/2 7/3/2 59/2/2 48/13/2
f 48/13/2 59/2/2 60/149/2 47/104/2
f 47/104/2 60/149/2 61/150/2 46/102/2
f 46/102/2 61/150/2 62/151/2 45/100/2
f 45/100/2 62/151/2 63/152/2 44/98/2
f 44/98/2 63/152/2 64/153/2 43/96/2
f 43/96/2 64/153/2 65/154/2 42/94/2
f 42/94/2 65/154/2 66/155/2 41/92/2
f 41/92/2 66/155/2 67/156/2 40/90/2
f 40/90/2 67/156/2 68/6/2 39/5/2
f 33/157/1 5/7/1 68/6/1 89/158/1
f 89/158/1 68/6/1 67/156/1 90/159/1
f 90/159/1 67/156/1 66/155/1 91/160/1
f 91/160/1 66/155/1 65/154/1 92/161/1
f 92/161/1 65/154/1 64/153/1 93/162/1
f 93/162/1 64/153/1 63/152/1 94/163/1
f 94/163/1 63/152/1 62/151/1 95/164/1
f 95/164/1 62/151/1 61/150/1 96/165/1
f 96/165/1 61/150/1 60/149/1 97/166/1
f 97/166/1 60/149/1 59/2/1 98/1/1
f 58/142/4 3/141/4 4/15/4 69/14/4 70/103/4 71/101/4 72/99/4 73/97/4 74/95/4 75/93/4 76/91/4 77/89/4 78/78/4 2/77/4 1/125/4 49/128/4 50/130/4 51/132/4 52/134/4 53/136/4 54/138/4 55/145/4 56/144/4 57/143/4
